<?xml version="1.0" encoding="UTF-8" standalone="no"?>
<svg
   xmlns:dc="http://purl.org/dc/elements/1.1/"
   xmlns:cc="http://creativecommons.org/ns#"
   xmlns:rdf="http://www.w3.org/1999/02/22-rdf-syntax-ns#"
   xmlns:svg="http://www.w3.org/2000/svg"
   xmlns="http://www.w3.org/2000/svg"
   xmlns:sodipodi="http://sodipodi.sourceforge.net/DTD/sodipodi-0.dtd"
   xmlns:inkscape="http://www.inkscape.org/namespaces/inkscape"
   width="42.262192mm"
   height="39.740665mm"
   viewBox="0 0 42.262192 39.740665"
   version="1.1"
   id="svg14794"
   inkscape:version="1.0 (4035a4fb49, 2020-05-01)"
   sodipodi:docname="mision.svg">
  <defs
     id="defs14788">
    <clipPath
       clipPathUnits="userSpaceOnUse"
       id="clipPath3047">
      <path
         d="M 0,290.285 H 334.772 V 0 H 0 Z"
         id="path3045" />
    </clipPath>
    <clipPath
       clipPathUnits="userSpaceOnUse"
       id="clipPath52">
      <path
         d="M 0,192.221 H 315.739 V 0 H 0 Z"
         id="path50" />
    </clipPath>
  </defs>
  <sodipodi:namedview
     id="base"
     pagecolor="#ffffff"
     bordercolor="#666666"
     borderopacity="1.0"
     inkscape:pageopacity="0.0"
     inkscape:pageshadow="2"
     inkscape:zoom="0.98994949"
     inkscape:cx="269.43209"
     inkscape:cy="178.77749"
     inkscape:document-units="mm"
     inkscape:current-layer="layer1"
     inkscape:document-rotation="0"
     showgrid="false"
     fit-margin-top="0"
     fit-margin-left="0"
     fit-margin-right="0"
     fit-margin-bottom="0"
     inkscape:window-width="1920"
     inkscape:window-height="1017"
     inkscape:window-x="1358"
     inkscape:window-y="-8"
     inkscape:window-maximized="1" />
  <metadata
     id="metadata14791">
    <rdf:RDF>
      <cc:Work
         rdf:about="">
        <dc:format>image/svg+xml</dc:format>
        <dc:type
           rdf:resource="http://purl.org/dc/dcmitype/StillImage" />
        <dc:title></dc:title>
      </cc:Work>
    </rdf:RDF>
  </metadata>
  <g
     inkscape:label="Capa 1"
     inkscape:groupmode="layer"
     id="layer1"
     transform="translate(-15.910571,-95.790382)">
    <g
       id="g348">
      <g
         id="g307">
        <g
           id="g267">
          <g
             id="g14910"
             transform="matrix(0.88379887,0,0,0.88379887,6.7597407,13.103026)">
            <rect
               style="fill:none;fill-opacity:1;stroke:none;stroke-width:0.262513"
               id="rect55043"
               width="42.262192"
               height="39.740665"
               x="15.910571"
               y="95.790382" />
            <g
               transform="matrix(0.14421352,0,0,-0.14421352,12.17157,129.9633)"
               clip-path="url(#clipPath52)"
               id="g48">
              <g
                 transform="translate(251.8505,-3e-4)"
                 id="g54">
                <path
                   id="path56"
                   style="fill:#0063c3;fill-opacity:1;fill-rule:nonzero;stroke:none"
                   d="m 0,0 c -2.652,1.452 -5.677,1.146 -8.506,1.777 -6.191,1.379 -12.333,2.904 -18.121,5.535 -3.574,1.624 -4.68,4.237 -3.496,7.421 1.244,3.344 4.006,4.694 7.639,3.493 7.284,-2.409 14.623,-4.484 22.28,-5.418 13.467,-1.645 26.486,0.201 39.232,4.565 0.966,0.331 1.914,0.721 2.895,1 3.237,0.924 5.943,-0.37 7.231,-3.417 C 50.42,11.961 49.408,9.075 46.261,7.521 42.127,5.479 37.702,4.199 33.241,3.069 28.878,1.965 24.452,1.201 19.99,0.634 19.421,0.562 18.724,0.764 18.429,0 Z" />
              </g>
              <g
                 transform="translate(315.7387,47.9157)"
                 id="g58">
                <path
                   id="path60"
                   style="fill:#0063c3;fill-opacity:1;fill-rule:nonzero;stroke:none"
                   d="m 0,0 c -1.97,-2.829 -3.955,-5.648 -5.906,-8.491 -1.414,-2.061 -3.322,-2.972 -5.471,-1.523 -2.265,1.528 -1.985,3.843 -0.312,5.573 3.804,3.932 4.068,7.473 0.111,11.597 -2.183,2.275 -1.742,4.555 0.27,5.777 2.445,1.484 4.03,0.045 5.399,-1.796 C -3.919,8.464 -1.968,5.762 0,3.072 Z" />
              </g>
              <g
                 transform="translate(75.0995,125.5358)"
                 id="g62">
                <path
                   id="path64"
                   style="fill:#0063c3;fill-opacity:1;fill-rule:nonzero;stroke:none"
                   d="m 0,0 c -2.521,-8.58 -5.04,-17.161 -7.566,-25.739 -1.183,-4.019 -2.323,-8.051 -3.59,-12.042 -1.401,-4.411 -3.39,-5.922 -7.459,-5.905 -3.899,0.016 -6.756,1.999 -7.959,5.987 -3.363,11.149 -6.591,22.341 -9.88,33.513 -0.398,1.354 -0.844,2.694 -1.701,4.027 -1.261,-8.702 -2.527,-17.404 -3.779,-26.108 -0.466,-3.238 -0.843,-6.49 -1.359,-9.719 -0.861,-5.382 -4.083,-8.204 -8.573,-7.613 -4.874,0.642 -7.463,4.352 -6.617,9.872 1.16,7.577 2.483,15.129 3.762,22.687 1.57,9.271 3.166,18.539 4.753,27.808 0.947,5.527 4.484,8.854 9.834,9.257 4.873,0.369 8.936,-2.391 10.543,-7.61 3.576,-11.616 6.98,-23.285 10.513,-35.132 0.853,0.715 0.949,1.575 1.189,2.375 3.271,10.859 6.463,21.742 9.859,32.562 2.514,8.009 11.897,10.436 17.579,4.695 1.49,-1.505 2.327,-3.311 2.678,-5.399 2.929,-17.44 5.913,-34.87 8.806,-52.314 0.705,-4.247 -2.096,-7.962 -6.305,-8.731 -4.236,-0.776 -7.96,1.664 -8.704,6.197 -1.589,9.684 -2.918,19.409 -4.36,29.117 C 1.259,-5.491 0.833,-2.771 0.417,-0.05 0.278,-0.033 0.139,-0.017 0,0" />
              </g>
              <g
                 transform="translate(225.2411,108.2116)"
                 id="g66">
                <path
                   id="path68"
                   style="fill:#ff1270;fill-opacity:1;fill-rule:nonzero;stroke:none"
                   d="m 0,0 c -0.088,6.594 -5.712,12.104 -12.245,11.996 -6.606,-0.107 -12.103,-5.713 -12.005,-12.242 0.099,-6.569 5.739,-12.1 12.251,-12.01 C -5.411,-12.166 0.088,-6.549 0,0 m -41.598,83.988 c 7.841,0.108 15.497,-1.054 22.881,-3.711 C 4.785,71.825 15.005,49.699 5.93,26.384 4.512,22.741 4.52,20.721 7.499,17.697 15.961,9.11 16.817,-4.491 10.279,-14.598 3.624,-24.884 -9.084,-29.316 -20.639,-25.382 c -11.557,3.936 -18.87,14.891 -18.027,27.005 0.857,12.301 9.637,22.311 21.694,24.496 4.053,0.735 8.232,0.77 12.148,-0.626 2.437,-0.868 3.136,0.046 3.959,2.055 8.469,20.661 -0.268,39.774 -21.47,46.669 -13.383,4.352 -26.831,3.718 -40.21,0.048 -17.715,-4.86 -32.866,-13.891 -44.768,-28.076 -1.237,-1.474 -1.88,-2.666 -1.04,-4.854 1.72,-4.482 -1.19,-9.224 -5.874,-10.408 -4.44,-1.123 -9.313,2.017 -10.193,6.569 -0.896,4.633 2.294,9.208 7.052,9.751 1.812,0.207 2.916,0.968 4.024,2.312 16.349,19.829 37.546,30.728 62.869,33.966 1.42,0.182 2.845,0.373 4.272,0.446 1.532,0.077 3.07,0.017 4.605,0.017" />
              </g>
              <g
                 transform="translate(81.3227,40.6237)"
                 id="g70">
                <path
                   id="path72"
                   style="fill:#ff1270;fill-opacity:1;fill-rule:nonzero;stroke:none"
                   d="m 0,0 c -0.013,22.834 19.701,38 41.226,31.856 2.577,-0.736 5.007,-1.783 7.045,-3.585 3.19,-2.822 3.903,-6.542 1.912,-9.918 -1.853,-3.14 -5.028,-4.091 -9.096,-2.687 -2.604,0.898 -5.145,1.948 -7.927,2.295 -6.034,0.751 -11.523,-1.921 -14.295,-7.357 -3.094,-6.066 -3.296,-12.412 -0.916,-18.73 2.848,-7.562 9.902,-10.98 17.934,-8.813 2.159,0.583 4.202,1.577 6.321,2.317 2.967,1.036 5.668,0.637 7.834,-1.787 2.146,-2.401 2.444,-5.726 0.816,-8.563 -1.494,-2.605 -3.852,-4.201 -6.555,-5.304 C 26.166,-37.685 2.979,-28.675 0.321,-4.139 0.167,-2.715 0.098,-1.283 0,0" />
              </g>
              <g
                 transform="translate(243.286,108.0124)"
                 id="g74">
                <path
                   id="path76"
                   style="fill:#0063c3;fill-opacity:1;fill-rule:nonzero;stroke:none"
                   d="m 0,0 c 0,5.629 -0.001,11.257 0.002,16.886 0,0.818 -0.049,1.645 0.053,2.453 0.394,3.089 1.966,5.317 4.913,6.483 2.916,1.153 5.051,-0.292 6.667,-2.394 1.476,-1.921 2.379,-2.098 4.444,-0.491 10.172,7.917 26.856,2.506 29.65,-9.481 0.321,-1.379 0.416,-2.837 0.423,-4.26 0.046,-9.21 0.088,-18.42 0.028,-27.63 -0.031,-4.682 -3.06,-7.872 -7.211,-7.867 -4.132,0.005 -7.369,3.201 -7.447,7.76 -0.141,8.286 0.033,16.579 -0.144,24.864 -0.092,4.317 -3.394,7.521 -7.556,7.891 C 19.861,14.566 16.136,12.011 15.043,8.039 14.725,6.882 14.705,5.617 14.7,4.401 c -0.032,-7.674 0.045,-15.35 -0.047,-23.024 -0.051,-4.323 -3.257,-7.55 -7.255,-7.603 -3.96,-0.052 -7.147,3.177 -7.382,7.499 C -0.023,-18.012 0,-17.294 0,-16.578 0,-11.052 0,-5.525 0,0" />
              </g>
              <g
                 transform="translate(20.5053,36.1315)"
                 id="g78">
                <path
                   id="path80"
                   style="fill:#ff1270;fill-opacity:1;fill-rule:nonzero;stroke:none"
                   d="m 0,0 c 0,6.547 -0.053,13.094 0.034,19.639 0.024,1.837 -0.505,2.594 -2.426,2.479 -2.139,-0.13 -4.3,-0.104 -6.439,0.038 -3.775,0.252 -6.514,3.384 -6.472,7.229 0.04,3.721 2.681,6.935 6.369,6.984 11.247,0.151 22.5,0.152 33.747,10e-4 3.684,-0.05 6.306,-3.225 6.396,-6.958 0.091,-3.783 -2.289,-6.762 -6.036,-7.275 -1.913,-0.262 -3.892,-0.363 -5.81,-0.192 -2.715,0.242 -3.666,-0.533 -3.627,-3.477 0.174,-12.783 0.107,-25.57 0.045,-38.355 -0.021,-4.266 -2.669,-7.379 -6.554,-8.072 -3.333,-0.595 -7.088,1.491 -8.48,4.736 -0.702,1.635 -0.748,3.376 -0.747,5.119 0.001,6.035 0,12.07 0,18.104" />
              </g>
              <g
                 transform="translate(142.2362,81.6315)"
                 id="g82">
                <path
                   id="path84"
                   style="fill:#0063c3;fill-opacity:1;fill-rule:nonzero;stroke:none"
                   d="m 0,0 c -6.241,0.057 -11.166,1.193 -15.646,3.93 -1.855,1.132 -3.444,2.556 -4.36,4.607 -1.04,2.331 -0.503,4.448 1.034,6.286 1.462,1.747 3.382,2.59 5.733,2.07 2.019,-0.447 3.846,-1.326 5.625,-2.358 2.603,-1.512 5.353,-2.571 8.449,-2.226 1.986,0.221 3.606,1.113 4.074,3.152 0.456,1.99 -1.061,3.036 -2.555,3.71 -3.813,1.721 -7.67,3.355 -11.567,4.875 -5.459,2.128 -9.323,5.474 -9.613,11.772 -0.312,6.782 2.793,11.692 8.71,14.607 7.778,3.83 15.624,3.34 23.262,-0.654 1.555,-0.812 2.852,-1.996 3.833,-3.468 1.538,-2.31 1.489,-4.659 -0.162,-6.849 -1.558,-2.065 -3.68,-2.899 -6.229,-2.079 -1.454,0.468 -2.829,1.178 -4.283,1.646 -1.84,0.591 -3.697,1.227 -5.597,1.517 -2.208,0.337 -4.575,0.109 -5.266,-2.483 -0.668,-2.507 1.587,-3.298 3.321,-4.076 3.819,-1.71 7.75,-3.173 11.546,-4.929 5.67,-2.622 9.151,-6.927 8.937,-13.406 C 19.026,9.01 15.245,4.668 9.428,1.995 6.136,0.482 2.606,-0.113 0,0" />
              </g>
              <g
                 transform="translate(208.2943,41.5553)"
                 id="g86">
                <path
                   id="path88"
                   style="fill:#0063c3;fill-opacity:1;fill-rule:nonzero;stroke:none"
                   d="m 0,0 c 0.056,3.906 -0.2,7.565 -1.601,11.038 -1.002,2.483 -2.441,4.517 -5.474,4.617 -3.169,0.107 -4.955,-1.822 -5.889,-4.467 -2.531,-7.163 -2.495,-14.417 -0.09,-21.606 0.9,-2.686 2.695,-4.666 5.787,-4.645 3.103,0.021 4.746,2.132 5.76,4.735 C -0.19,-6.951 0.099,-3.389 0,0 m 11.102,0.149 c 0.084,-4.425 -0.268,-8.789 -1.88,-12.971 -2.887,-7.49 -9.475,-12.235 -16.826,-12.106 -7.247,0.127 -13.977,5.16 -16.357,12.729 -2.578,8.199 -2.622,16.563 -0.065,24.776 2.54,8.159 9.209,13.025 17.068,12.916 C 0.672,25.389 7.333,20.005 9.748,11.99 10.912,8.125 11.2,4.158 11.102,0.149" />
              </g>
              <g
                 transform="translate(161.6049,27.2028)"
                 id="g90">
                <path
                   id="path92"
                   style="fill:#0063c3;fill-opacity:1;fill-rule:nonzero;stroke:none"
                   d="m 0,0 c 4.039,0 7.909,0.072 11.775,-0.027 2.433,-0.062 4.042,-1.487 4.596,-3.81 0.497,-2.09 -0.38,-3.81 -2.108,-5.057 -0.942,-0.679 -2.057,-0.918 -3.194,-0.919 -7.672,-0.013 -15.343,-0.043 -23.014,0.027 -2.121,0.019 -4.122,0.686 -5.069,2.828 -0.986,2.232 -0.163,4.134 1.347,5.896 5.121,5.982 10.205,11.995 15.284,18.01 1.521,1.802 2.918,3.703 3.706,5.956 0.984,2.815 0.236,5.231 -2.004,6.376 -2.602,1.332 -4.743,0.439 -6.574,-1.563 -1.135,-1.242 -1.551,-2.855 -2.171,-4.362 -1.447,-3.516 -3.341,-4.648 -6.297,-3.783 -2.423,0.71 -3.751,3.269 -3.365,6.49 0.763,6.377 5.567,11.607 12.298,13.382 C 4.413,41.872 13.515,36.658 15.035,27.968 15.879,23.139 14.143,18.865 11.448,15.007 8.401,10.646 4.925,6.612 1.384,2.641 0.861,2.055 0.146,1.566 0,0" />
              </g>
              <g
                 transform="translate(280.8534,34.5055)"
                 id="g94">
                <path
                   id="path96"
                   style="fill:#ff1270;fill-opacity:1;fill-rule:nonzero;stroke:none"
                   d="m 0,0 c 4.221,0 7.891,0.046 11.559,-0.014 3.465,-0.056 5.538,-1.897 5.553,-4.786 0.016,-2.961 -2.002,-4.967 -5.39,-5.003 -7.568,-0.081 -15.138,-0.049 -22.707,-0.013 -2.248,0.009 -4.296,0.61 -5.352,2.863 -1.069,2.281 -0.112,4.116 1.372,5.859 5.302,6.23 10.578,12.482 15.848,18.738 1.325,1.572 2.46,3.292 3.144,5.232 0.976,2.767 0.132,5.247 -2.032,6.403 -2.278,1.218 -5.079,0.55 -6.751,-1.842 -0.864,-1.235 -1.417,-2.703 -2.011,-4.108 -1.452,-3.441 -3.018,-4.467 -5.986,-3.812 -2.571,0.565 -3.924,2.888 -3.637,6.243 0.57,6.652 5.734,12.18 12.907,13.818 C 7.143,42.003 16.75,34.396 15.795,24.244 15.39,19.928 13.334,16.272 10.664,12.964 7.274,8.764 3.809,4.623 0,0" />
              </g>
              <g
                 transform="translate(240.8793,34.5046)"
                 id="g98">
                <path
                   id="path100"
                   style="fill:#ff1270;fill-opacity:1;fill-rule:nonzero;stroke:none"
                   d="m 0,0 c 4.272,0 7.954,0.052 11.633,-0.016 3.425,-0.061 5.514,-1.973 5.492,-4.861 -0.021,-2.915 -2.094,-4.897 -5.484,-4.93 -7.568,-0.071 -15.138,-0.047 -22.706,-0.006 -2.251,0.012 -4.311,0.642 -5.308,2.923 -0.993,2.275 -0.038,4.11 1.456,5.859 5.245,6.141 10.44,12.328 15.648,18.502 1.326,1.571 2.474,3.27 3.209,5.193 1.099,2.878 0.267,5.497 -2.011,6.651 -2.311,1.171 -5.064,0.475 -6.732,-1.942 -0.856,-1.24 -1.385,-2.718 -1.98,-4.122 -1.429,-3.378 -3.079,-4.415 -6.056,-3.725 -2.525,0.587 -3.902,3.023 -3.563,6.304 0.693,6.72 5.827,12.164 12.982,13.765 10.62,2.376 20.334,-5.38 19.228,-15.413 -0.474,-4.3 -2.501,-7.96 -5.183,-11.265 C 7.232,8.734 3.784,4.595 0,0" />
              </g>
              <g
                 transform="translate(73.8432,40.654)"
                 id="g102">
                <path
                   id="path104"
                   style="fill:#ff1270;fill-opacity:1;fill-rule:nonzero;stroke:none"
                   d="m 0,0 c 0,-8.379 0.093,-16.758 -0.041,-25.134 -0.064,-4.006 -2.927,-6.855 -6.862,-7.385 -3.428,-0.46 -7.006,1.697 -8.209,5.096 -0.366,1.031 -0.501,2.194 -0.504,3.297 -0.03,16.042 -0.049,32.084 -0.005,48.126 0.015,5.215 3.223,8.608 7.904,8.61 4.72,0.003 7.705,-3.266 7.747,-8.701 C 0.092,15.939 0.046,7.97 0.046,0 Z" />
              </g>
              <g
                 transform="translate(101.766,108.3844)"
                 id="g106">
                <path
                   id="path108"
                   style="fill:#0063c3;fill-opacity:1;fill-rule:nonzero;stroke:none"
                   d="m 0,0 c 0,6.243 -0.198,12.494 0.062,18.726 0.216,5.209 5.101,8.435 9.723,6.716 3.233,-1.203 4.885,-3.75 4.907,-7.107 0.08,-12.385 0.113,-24.772 -0.003,-37.155 -0.043,-4.628 -3.349,-7.863 -7.405,-7.784 -4.177,0.082 -7.197,3.162 -7.305,7.874 -0.145,6.24 -0.036,12.486 -0.036,18.73 z" />
              </g>
              <g
                 transform="translate(181.3715,108.1169)"
                 id="g110">
                <path
                   id="path112"
                   style="fill:#0063c3;fill-opacity:1;fill-rule:nonzero;stroke:none"
                   d="m 0,0 c 0,-6.039 0.041,-12.078 -0.013,-18.116 -0.044,-4.946 -2.955,-8.21 -7.193,-8.221 -4.227,-0.012 -7.459,3.297 -7.49,8.052 -0.082,12.18 -0.09,24.36 0.006,36.54 0.036,4.704 3.418,8.03 7.626,7.915 4.129,-0.114 7.002,-3.322 7.049,-8.054 C 0.045,12.078 0,6.039 0,0" />
              </g>
              <g
                 transform="translate(182.3881,147.1061)"
                 id="g114">
                <path
                   id="path116"
                   style="fill:#0063c3;fill-opacity:1;fill-rule:nonzero;stroke:none"
                   d="m 0,0 c -0.053,-4.484 -3.803,-8.225 -8.241,-8.219 -4.621,0.006 -8.398,3.786 -8.383,8.39 0.015,4.731 3.639,8.342 8.365,8.335 C -3.689,8.499 0.055,4.644 0,0" />
              </g>
              <g
                 transform="translate(-1e-4,117.3971)"
                 id="g118">
                <path
                   id="path120"
                   style="fill:#ff1270;fill-opacity:1;fill-rule:nonzero;stroke:none"
                   d="m 0,0 c -0.002,1.541 0.533,2.528 1.172,3.453 1.62,2.347 3.249,4.69 4.924,6.998 1.332,1.837 3.058,2.897 5.217,1.487 2.176,-1.419 2.183,-3.669 0.601,-5.283 -4.278,-4.36 -4.081,-8.305 0.097,-12.595 1.506,-1.546 1.298,-3.683 -0.639,-5.074 -1.95,-1.4 -3.758,-0.73 -5.06,1.025 C 4.37,-7.373 2.571,-4.648 0.778,-1.927 0.345,-1.269 0.172,-0.439 0,0" />
              </g>
            </g>
          </g>
        </g>
      </g>
    </g>
  </g>
</svg>
